<?xml version="1.0" encoding="utf-8"?>
<!-- Generator: Adobe Illustrator 26.5.0, SVG Export Plug-In . SVG Version: 6.00 Build 0)  -->
<svg version="1.1" id="Layer_1" xmlns="http://www.w3.org/2000/svg" xmlns:xlink="http://www.w3.org/1999/xlink" x="0px" y="0px"
	 viewBox="0 0 1071 703.6" style="enable-background:new 0 0 1071 703.6;" xml:space="preserve">
<style type="text/css">
	.st0{fill:#A55011;stroke:#56310C;stroke-width:4;stroke-miterlimit:10;}
	.st1{stroke:#301C05;stroke-width:2;stroke-miterlimit:10;}
	.st2{fill:url(#SVGID_1_);stroke:#182B0B;stroke-width:2;stroke-miterlimit:10;}
	.st3{fill:none;stroke:#1D330C;stroke-width:2;stroke-miterlimit:10;}
	.st4{fill:url(#SVGID_00000000919241361966078160000004862617347226529966_);stroke:#182B0B;stroke-width:2;stroke-miterlimit:10;}
	.st5{fill:#D01100;stroke:#731600;stroke-width:4;stroke-miterlimit:10;}
	.st6{fill:none;stroke:#301C05;stroke-width:2;stroke-miterlimit:10;}
	.st7{fill:none;stroke:#000000;stroke-width:4;stroke-miterlimit:10;}
	.st8{fill:#FFFFFF;}
	.st9{fill:url(#SVGID_00000128448783262017690580000010585134166919218095_);stroke:#182B0B;stroke-width:2;stroke-miterlimit:10;}
	.st10{fill:url(#SVGID_00000099652176612404861930000010108966945719903385_);stroke:#182B0B;stroke-width:2;stroke-miterlimit:10;}
</style>
<g id="Layer_2_00000132776300523365120590000006598541172099401659_">
	<path class="st0" d="M688.6,222.5c0,0,27.2-90.8,24.2-113.8s-18.2-22-24.2-21.5s-73.5,52.3-107.6,46s-74.9-5.1-103.2,1
		c-28.3,6.1-113.4-49.9-123.2-51.4c-9.9-1.5-19.2,7-21.8,21.8c-2.5,14.8,5.8,84.8,19.1,105.2c13.3,20.4-24.7,36.1-16.8,114.8
		c3.9,39.7,46.8,87.3,61,94.8S277.9,626.2,312.5,642c34.6,15.7,323.4,53.8,418.7,38.7c32.7-47.5-84.8-261.5-84.8-261.5
		S752.7,341.8,688.6,222.5L688.6,222.5z"/>
	<path class="st1" d="M517.2,355L504,332.1c-2.8-4.9,0.7-11,6.3-11h26.5c5.6,0,9.2,6.1,6.3,11L529.8,355c-1.4,2.4-3.9,3.7-6.3,3.7
		S518.6,357.4,517.2,355L517.2,355z"/>
	
		<linearGradient id="SVGID_1_" gradientUnits="userSpaceOnUse" x1="563.6857" y1="1025.327" x2="648.568" y2="1025.327" gradientTransform="matrix(1 0 0 1 0 -756)">
		<stop  offset="6.000000e-02" style="stop-color:#8CC63F"/>
		<stop  offset="0.82" style="stop-color:#1F3A20"/>
	</linearGradient>
	<path class="st2" d="M563.9,290.6c0,0-6.5-27.6,52.1-46.7s22.6,37.5,10.7,46.7S579.6,302.8,563.9,290.6L563.9,290.6z"/>
	<path class="st1" d="M603.8,248.3c0,0-16,22.9,0,38.9C611.3,285.1,619.4,267.3,603.8,248.3z"/>
	<path class="st3" d="M563.9,290.6c0,0-6.5-27.6,52.1-46.7s22.6,37.5,10.7,46.7S579.6,302.8,563.9,290.6L563.9,290.6z"/>
	
		<linearGradient id="SVGID_00000074429026688739186600000013501382712002896299_" gradientUnits="userSpaceOnUse" x1="281.4057" y1="1023.7313" x2="366.288" y2="1023.7313" gradientTransform="matrix(-1 0 0 1 767.42 -756)">
		<stop  offset="6.000000e-02" style="stop-color:#8CC63F"/>
		<stop  offset="0.82" style="stop-color:#1F3A20"/>
	</linearGradient>
	
		<path style="fill:url(#SVGID_00000074429026688739186600000013501382712002896299_);stroke:#182B0B;stroke-width:2;stroke-miterlimit:10;" d="
		M485.8,289c0,0,6.5-27.6-52.1-46.7c-58.6-19.2-22.6,37.5-10.7,46.7C434.9,298.2,470.1,301.3,485.8,289z"/>
	<path class="st1" d="M445.9,246.7c0,0,16,22.9,0,38.9C438.4,283.6,430.4,265.7,445.9,246.7z"/>
	<path class="st3" d="M485.8,289c0,0,6.5-27.6-52.1-46.7c-58.6-19.2-22.6,37.5-10.7,46.7C434.9,298.2,470.1,301.3,485.8,289z"/>
	<path class="st5" d="M537.6,466.9c0,0,60.5-65.1,59.2-24s10.2,79.6-22.5,64.7s-41.6-32-41.4-32.4S524.8,472,537.6,466.9z"/>
	<path class="st5" d="M516.2,466.9c0,0-60.5-65.1-59.2-24s-10.2,79.6,22.5,64.7c32.7-14.9,41.6-32,41.4-32.4S529,472,516.2,466.9z"
		/>
	<ellipse class="st5" cx="527.7" cy="475.2" rx="23" ry="16.5"/>
	<path class="st6" d="M489.1,375c2.4,6.9,6.5,9.2,7.8,9.9c9.4,4.6,23.8-3.3,27-14.3c1.5-4.9,0.4-9.4-0.4-12"/>
	<path class="st6" d="M559.7,375c-2.4,6.9-6.5,9.2-7.8,9.9c-9.4,4.6-23.8-3.3-27-14.3c-1.5-4.9-0.4-9.4,0.4-12"/>
	<path class="st6" d="M563.7,248.3c0,0,29.3-42.1,79.1-22.6"/>
	<path class="st6" d="M483.2,248.3c0,0-29.3-42.1-79.1-22.6"/>
</g>
<g id="Layer_1_00000031898602725729759600000000253956930250799273_">
	<line class="st7" x1="70.9" y1="626.9" x2="1014.1" y2="626.9"/>
	<rect x="56.4" y="626.9" class="st8" width="989.7" height="73.8"/>
</g>
<g id="Layer_2_00000002361209170576720620000008012587995064738984_">
	<path class="st0" d="M688.6,221.5c0,0,27.2-90.8,24.2-113.8s-18.2-22-24.2-21.5c-6,0.5-73.5,52.3-107.6,46
		c-34-6.3-74.9-5.1-103.2,1c-28.3,6.1-113.4-49.9-123.2-51.4c-9.9-1.5-19.2,7-21.8,21.8c-2.5,14.8,5.8,84.8,19.1,105.2
		c13.3,20.4-24.7,36.1-16.8,114.8c3.9,39.7,46.8,87.3,61,94.8c14.2,7.5-118.2,206.8-83.6,222.6c34.6,15.7,323.4,53.8,418.7,38.7
		c32.7-47.5-84.8-261.4-84.8-261.4S752.8,340.7,688.6,221.5L688.6,221.5z"/>
	<path class="st1" d="M517.2,353.9L504,331c-2.8-4.9,0.7-11,6.3-11h26.5c5.6,0,9.2,6.1,6.3,11l-13.2,22.9c-1.4,2.4-3.9,3.7-6.3,3.7
		S518.6,356.4,517.2,353.9L517.2,353.9z"/>
	
		<linearGradient id="SVGID_00000142152057813197126050000016814466347277303688_" gradientUnits="userSpaceOnUse" x1="563.6765" y1="439.8523" x2="650.446" y2="439.8523" gradientTransform="matrix(1 0 0 -1 0 706)">
		<stop  offset="6.000000e-02" style="stop-color:#8CC63F"/>
		<stop  offset="0.82" style="stop-color:#1F3A20"/>
	</linearGradient>
	
		<path style="fill:url(#SVGID_00000142152057813197126050000016814466347277303688_);stroke:#182B0B;stroke-width:2;stroke-miterlimit:10;" d="
		M563.9,289.5c0,0-6.8-33.1,51.8-52.2s27.9,45.1,16,54.2S579.6,301.7,563.9,289.5z"/>
	<path class="st1" d="M603.9,247.2c0,0-16,22.9,0,38.9C611.3,284.1,619.4,266.2,603.9,247.2z"/>
	<path class="st3" d="M563.9,289.5c0,0-6.8-33.1,51.8-52.2s24.5,47.1,12.6,56.3S579.6,301.7,563.9,289.5L563.9,289.5z"/>
	
		<linearGradient id="SVGID_00000044176183557101920390000017546258186139540655_" gradientUnits="userSpaceOnUse" x1="440.6365" y1="440.9023" x2="527.4061" y2="440.9023" gradientTransform="matrix(-1 0 0 -1 925.25 706)">
		<stop  offset="6.000000e-02" style="stop-color:#8CC63F"/>
		<stop  offset="0.82" style="stop-color:#1F3A20"/>
	</linearGradient>
	
		<path style="fill:url(#SVGID_00000044176183557101920390000017546258186139540655_);stroke:#182B0B;stroke-width:2;stroke-miterlimit:10;" d="
		M484.4,288.4c0,0,6.8-33.1-51.8-52.2s-27.9,45.1-16,54.2S468.7,300.7,484.4,288.4z"/>
	<path class="st1" d="M445.9,245.7c0,0,16,22.9,0,38.9C438.5,282.5,430.4,264.7,445.9,245.7z"/>
	<path class="st5" d="M537.7,465.8c0,0,60.5-65.1,59.2-24s10.2,79.6-22.5,64.7c-32.7-14.9-41.6-32-41.4-32.4
		S524.9,470.9,537.7,465.8z"/>
	<path class="st5" d="M516.3,465.8c0,0-60.5-65.1-59.2-24s-10.2,79.6,22.5,64.7c32.7-14.9,41.6-32,41.4-32.4S529,470.9,516.3,465.8z
		"/>
	<ellipse class="st5" cx="527.7" cy="474.1" rx="23" ry="16.5"/>
	<path class="st6" d="M489.1,373.9c2.4,6.9,6.5,9.2,7.8,9.9c9.4,4.6,23.8-3.3,27-14.3c1.5-4.9,0.4-9.4-0.4-12"/>
	<path class="st6" d="M559.8,373.9c-2.4,6.9-6.5,9.2-7.8,9.9c-9.4,4.6-23.8-3.3-27-14.3c-1.5-4.9-0.4-9.4,0.4-12"/>
	<path class="st6" d="M563.7,247.2c0,0,29.3-42.1,79.1-22.6"/>
	<path class="st6" d="M483.2,247.2c0,0-29.3-42.1-79.1-22.6"/>
</g>
<g id="Layer_1_00000065066215926690410340000012555729532288300209_">
	<line class="st7" x1="71" y1="625.8" x2="1014.1" y2="625.8"/>
	<rect x="56.4" y="625.8" class="st8" width="989.7" height="73.8"/>
	<path d="M505.1,384.1c0,0-14.8,5.4-1.7,18s28.5,17.6,41.1,0s2.3-17-5.6-18s-13.6-15.6-13.6-15.6S512.9,385.5,505.1,384.1z"/>
</g>
</svg>
